<svg xmlns="http://www.w3.org/2000/svg" width="512" height="512" viewBox="0 0 512 512" role="img" aria-labelledby="title description">
  <title id="title">OpenPali avatar</title>
  <desc id="description">An original P made from fifteen separated squares on a five-column, seven-row grid.</desc>
  <rect x="0" y="0" width="512" height="512" fill="#1557FF"/><g aria-hidden="true"><rect x="144" y="96" width="40" height="40" fill="#FFFFFF"/><rect x="190" y="96" width="40" height="40" fill="#FFFFFF"/><rect x="236" y="96" width="40" height="40" fill="#FFFFFF"/><rect x="282" y="96" width="40" height="40" fill="#FFFFFF"/><rect x="144" y="142" width="40" height="40" fill="#FFFFFF"/><rect x="328" y="142" width="40" height="40" fill="#FFFFFF"/><rect x="144" y="188" width="40" height="40" fill="#FFFFFF"/><rect x="328" y="188" width="40" height="40" fill="#FFFFFF"/><rect x="144" y="234" width="40" height="40" fill="#FFFFFF"/><rect x="190" y="234" width="40" height="40" fill="#FFFFFF"/><rect x="236" y="234" width="40" height="40" fill="#FFFFFF"/><rect x="282" y="234" width="40" height="40" fill="#FFFFFF"/><rect x="144" y="280" width="40" height="40" fill="#FFFFFF"/><rect x="144" y="326" width="40" height="40" fill="#FFFFFF"/><rect x="144" y="372" width="40" height="40" fill="#FFFFFF"/></g>
</svg>
